<svg xmlns="http://www.w3.org/2000/svg" xmlns:xlink="http://www.w3.org/1999/xlink" version="1.1" width="1000" height="1000" viewBox="0 0 1000 1000" xml:space="preserve">
<desc>Created with Fabric.js 3.5.0</desc>
<defs>
</defs>
<rect x="0" y="0" width="100%" height="100%" fill="#ffffff"/>
<g transform="matrix(1.0413 0 0 1.0384 498.3268 499.1994)" id="179797">
<g style="" vector-effect="non-scaling-stroke">
		<g transform="matrix(1 0 0 1 0 0)">
<circle style="stroke: none; stroke-width: 1; stroke-dasharray: none; stroke-linecap: butt; stroke-dashoffset: 0; stroke-linejoin: miter; stroke-miterlimit: 4; is-custom-font: none; font-file-url: none; fill: rgb(56,43,115); fill-rule: nonzero; opacity: 1;" cx="0" cy="0" r="398"/>
</g>
		<g transform="matrix(1 0 0 1 0 0)">
<circle style="stroke: none; stroke-width: 1; stroke-dasharray: none; stroke-linecap: butt; stroke-dashoffset: 0; stroke-linejoin: miter; stroke-miterlimit: 4; is-custom-font: none; font-file-url: none; fill: rgb(71,48,128); fill-rule: nonzero; opacity: 1;" cx="0" cy="0" r="344.3"/>
</g>
		<g transform="matrix(1 0 0 1 0 -0.0445)">
<path style="stroke: none; stroke-width: 1; stroke-dasharray: none; stroke-linecap: butt; stroke-dashoffset: 0; stroke-linejoin: miter; stroke-miterlimit: 4; is-custom-font: none; font-file-url: none; fill: rgb(56,43,115); fill-rule: nonzero; opacity: 1;" transform=" translate(-500, -499.9555)" d="M 737 374.2 v -1.8 v -10 v -10 v -10 v -10 v -10 c 0 -10.1 -8.2 -18.3 -18.3 -18.3 l -17.5 -5.2 c -60.3 -18.1 -125.2 -14.1 -182.6 11.8 c -0.5 0.2 -1 0.5 -1.5 0.7 v 0 c 0 0 0 0 0 0 c -0.6 0.3 -1.2 0.5 -1.8 0.8 c -0.1 0 -0.1 0.1 -0.2 0.1 c -0.5 0.3 -1.1 0.5 -1.6 0.7 c -0.1 0 -0.2 0.1 -0.3 0.1 c -0.5 0.2 -1 0.5 -1.4 0.7 c -0.1 0.1 -0.2 0.1 -0.3 0.2 c -0.4 0.2 -0.8 0.4 -1.3 0.6 c -0.1 0.1 -0.3 0.1 -0.4 0.2 c -0.4 0.2 -0.8 0.4 -1.1 0.6 c -0.1 0.1 -0.3 0.2 -0.4 0.2 c -0.3 0.2 -0.7 0.4 -1 0.5 c -0.1 0.1 -0.3 0.2 -0.4 0.2 c -0.3 0.2 -0.6 0.3 -0.9 0.5 c -0.1 0.1 -0.3 0.2 -0.4 0.3 c -0.3 0.2 -0.5 0.3 -0.8 0.5 c -0.1 0.1 -0.3 0.2 -0.4 0.3 c -0.2 0.1 -0.4 0.3 -0.6 0.4 c -0.1 0.1 -0.3 0.2 -0.4 0.3 c -0.2 0.1 -0.4 0.3 -0.5 0.4 c -0.1 0.1 -0.3 0.2 -0.4 0.3 c -0.2 0.1 -0.3 0.2 -0.4 0.4 c -0.1 0.1 -0.2 0.2 -0.3 0.3 c -0.1 0.1 -0.2 0.2 -0.4 0.3 c -0.1 0.1 -0.2 0.2 -0.3 0.3 c -0.1 0.1 -0.2 0.2 -0.3 0.3 c -0.1 0.1 -0.2 0.2 -0.2 0.3 c -0.1 0.1 -0.1 0.2 -0.2 0.2 c -0.1 0.1 -0.1 0.2 -0.2 0.3 c 0 0.1 -0.1 0.1 -0.1 0.2 c -0.1 0.2 -0.1 0.3 -0.1 0.5 c 0 -0.2 0 -0.3 -0.1 -0.5 c 0 -0.1 -0.1 -0.1 -0.1 -0.2 c 0 -0.1 -0.1 -0.2 -0.2 -0.3 c 0 -0.1 -0.1 -0.2 -0.2 -0.2 c -0.1 -0.1 -0.1 -0.2 -0.2 -0.3 c -0.1 -0.1 -0.2 -0.2 -0.3 -0.3 c -0.1 -0.1 -0.2 -0.2 -0.3 -0.3 c -0.1 -0.1 -0.2 -0.2 -0.4 -0.3 c -0.1 -0.1 -0.2 -0.2 -0.3 -0.3 c -0.1 -0.1 -0.3 -0.2 -0.4 -0.4 c -0.1 -0.1 -0.2 -0.2 -0.4 -0.3 c -0.2 -0.1 -0.4 -0.3 -0.5 -0.4 c -0.1 -0.1 -0.3 -0.2 -0.4 -0.3 c -0.2 -0.1 -0.4 -0.3 -0.6 -0.4 c -0.1 -0.1 -0.3 -0.2 -0.4 -0.3 c -0.2 -0.2 -0.5 -0.3 -0.8 -0.5 c -0.1 -0.1 -0.3 -0.2 -0.4 -0.3 c -0.3 -0.2 -0.6 -0.3 -0.9 -0.5 c -0.1 -0.1 -0.3 -0.2 -0.4 -0.2 c -0.3 -0.2 -0.7 -0.4 -1 -0.6 c -0.1 -0.1 -0.3 -0.1 -0.4 -0.2 c -0.4 -0.2 -0.7 -0.4 -1.1 -0.6 c -0.1 -0.1 -0.3 -0.1 -0.4 -0.2 c -0.4 -0.2 -0.8 -0.4 -1.3 -0.6 c -0.1 -0.1 -0.2 -0.1 -0.3 -0.2 c -0.5 -0.2 -0.9 -0.5 -1.4 -0.7 c -0.1 0 -0.2 -0.1 -0.3 -0.1 c -0.5 -0.2 -1 -0.5 -1.6 -0.8 c -0.1 0 -0.1 -0.1 -0.2 -0.1 c -0.6 -0.3 -1.2 -0.5 -1.8 -0.8 c 0 0 0 0 0 0 v 0 c -0.5 -0.2 -1 -0.5 -1.5 -0.7 c -57.4 -25.9 -122.3 -29.8 -182.6 -11.8 l -17.5 5.2 c -10.1 0 -18.3 8.2 -18.3 18.3 v 10 v 10 v 10 v 10 v 10 v 1.8 c -9.3 1.2 -16.5 9.2 -16.5 18.8 v 7.6 v 285.3 v 7.6 c 0 10.5 8.5 19 19 19 H 481 c 8.2 0 15.1 -5.2 17.8 -12.4 l 1.2 0.4 l 1.2 -0.4 c 2.7 7.3 9.6 12.4 17.8 12.4 h 215.5 c 10.5 0 19 -8.5 19 -19 v -7.6 V 400.5 v -7.6 C 753.5 383.3 746.3 375.4 737 374.2 z" stroke-linecap="round"/>
</g>
		<g transform="matrix(1 0 0 1 126.75 26.95)">
<path style="stroke: none; stroke-width: 1; stroke-dasharray: none; stroke-linecap: butt; stroke-dashoffset: 0; stroke-linejoin: miter; stroke-miterlimit: 4; is-custom-font: none; font-file-url: none; fill: rgb(228,61,145); fill-rule: nonzero; opacity: 1;" transform=" translate(-626.75, -526.95)" d="M 734.5 692.4 H 519 c -10.5 0 -19 -8.5 -19 -19 V 380.5 c 0 -10.5 8.5 -19 19 -19 h 215.5 c 10.5 0 19 8.5 19 19 v 292.9 C 753.5 683.9 745 692.4 734.5 692.4 z" stroke-linecap="round"/>
</g>
		<g transform="matrix(1 0 0 1 126.75 19.35)">
<path style="stroke: none; stroke-width: 1; stroke-dasharray: none; stroke-linecap: butt; stroke-dashoffset: 0; stroke-linejoin: miter; stroke-miterlimit: 4; is-custom-font: none; font-file-url: none; fill: rgb(239,90,157); fill-rule: nonzero; opacity: 1;" transform=" translate(-626.75, -519.35)" d="M 734.5 684.8 H 519 c -10.5 0 -19 -8.5 -19 -19 V 372.9 c 0 -10.5 8.5 -19 19 -19 h 215.5 c 10.5 0 19 8.5 19 19 v 292.9 C 753.5 676.3 745 684.8 734.5 684.8 z" stroke-linecap="round"/>
</g>
		<g transform="matrix(1 0 0 1 -126.75 26.95)">
<path style="stroke: none; stroke-width: 1; stroke-dasharray: none; stroke-linecap: butt; stroke-dashoffset: 0; stroke-linejoin: miter; stroke-miterlimit: 4; is-custom-font: none; font-file-url: none; fill: rgb(228,61,145); fill-rule: nonzero; opacity: 1;" transform=" translate(-373.25, -526.95)" d="M 481 692.4 H 265.5 c -10.5 0 -19 -8.5 -19 -19 V 380.5 c 0 -10.5 8.5 -19 19 -19 H 481 c 10.5 0 19 8.5 19 19 v 292.9 C 500 683.9 491.5 692.4 481 692.4 z" stroke-linecap="round"/>
</g>
		<g transform="matrix(1 0 0 1 -126.75 19.35)">
<path style="stroke: none; stroke-width: 1; stroke-dasharray: none; stroke-linecap: butt; stroke-dashoffset: 0; stroke-linejoin: miter; stroke-miterlimit: 4; is-custom-font: none; font-file-url: none; fill: rgb(239,90,157); fill-rule: nonzero; opacity: 1;" transform=" translate(-373.25, -519.35)" d="M 481 684.8 H 265.5 c -10.5 0 -19 -8.5 -19 -19 V 372.9 c 0 -10.5 8.5 -19 19 -19 H 481 c 10.5 0 19 8.5 19 19 v 292.9 C 500 676.3 491.5 684.8 481 684.8 z" stroke-linecap="round"/>
</g>
		<g transform="matrix(1 0 0 1 -118.45 4.8)">
<path style="stroke: none; stroke-width: 1; stroke-dasharray: none; stroke-linecap: butt; stroke-dashoffset: 0; stroke-linejoin: miter; stroke-miterlimit: 4; is-custom-font: none; font-file-url: none; fill: rgb(228,61,145); fill-rule: nonzero; opacity: 1;" transform=" translate(-381.55, -504.8)" d="M 500 680.3 l -22.8 -6.8 c -62.4 -18.7 -128.9 -18.7 -191.3 0 l -4.5 1.3 c -10.1 3 -18.3 -3.1 -18.3 -13.7 V 362.3 c 0 -10.1 8.2 -18.3 18.3 -18.3 l 0 0 c 65.3 -19.6 135 -19.6 200.3 0 l 0 0 c 10.1 0 18.3 8.2 18.3 18.3 V 680.3 z" stroke-linecap="round"/>
</g>
		<g transform="matrix(1 0 0 1 118.45 4.8)">
<path style="stroke: none; stroke-width: 1; stroke-dasharray: none; stroke-linecap: butt; stroke-dashoffset: 0; stroke-linejoin: miter; stroke-miterlimit: 4; is-custom-font: none; font-file-url: none; fill: rgb(228,61,145); fill-rule: nonzero; opacity: 1;" transform=" translate(-618.45, -504.8)" d="M 500 680.3 l 22.8 -6.8 c 62.4 -18.7 128.9 -18.7 191.3 0 l 4.5 1.3 c 10.1 3 18.3 -3.1 18.3 -13.7 V 362.3 c 0 -10.1 -8.2 -18.3 -18.3 -18.3 l 0 0 c -65.3 -19.6 -135 -19.6 -200.3 0 l 0 0 c -10.1 0 -18.3 8.2 -18.3 18.3 V 680.3 z" stroke-linecap="round"/>
</g>
		<g transform="matrix(1 0 0 1 -118.45 -5.2)">
<path style="stroke: none; stroke-width: 1; stroke-dasharray: none; stroke-linecap: butt; stroke-dashoffset: 0; stroke-linejoin: miter; stroke-miterlimit: 4; is-custom-font: none; font-file-url: none; fill: rgb(209,211,212); fill-rule: nonzero; opacity: 1;" transform=" translate(-381.55, -494.8)" d="M 500 670.3 l -22.8 -6.8 c -62.4 -18.7 -128.9 -18.7 -191.3 0 l -4.5 1.3 c -10.1 3 -18.3 -3.1 -18.3 -13.7 V 352.3 c 0 -10.1 8.2 -18.3 18.3 -18.3 l 0 0 c 65.3 -19.6 135 -19.6 200.3 0 l 0 0 c 10.1 0 18.3 8.2 18.3 18.3 V 670.3 z" stroke-linecap="round"/>
</g>
		<g transform="matrix(1 0 0 1 -118.45 -15.2)">
<path style="stroke: none; stroke-width: 1; stroke-dasharray: none; stroke-linecap: butt; stroke-dashoffset: 0; stroke-linejoin: miter; stroke-miterlimit: 4; is-custom-font: none; font-file-url: none; fill: rgb(230,231,232); fill-rule: nonzero; opacity: 1;" transform=" translate(-381.55, -484.8)" d="M 500 660.3 l -22.8 -6.8 c -62.4 -18.7 -128.9 -18.7 -191.3 0 l -4.5 1.3 c -10.1 3 -18.3 -3.1 -18.3 -13.7 V 342.3 c 0 -10.1 8.2 -18.3 18.3 -18.3 l 0 0 c 65.3 -19.6 135 -19.6 200.3 0 l 0 0 c 10.1 0 18.3 8.2 18.3 18.3 V 660.3 z" stroke-linecap="round"/>
</g>
		<g transform="matrix(1 0 0 1 118.45 -5.2)">
<path style="stroke: none; stroke-width: 1; stroke-dasharray: none; stroke-linecap: butt; stroke-dashoffset: 0; stroke-linejoin: miter; stroke-miterlimit: 4; is-custom-font: none; font-file-url: none; fill: rgb(209,211,212); fill-rule: nonzero; opacity: 1;" transform=" translate(-618.45, -494.8)" d="M 500 670.3 l 22.8 -6.8 c 62.4 -18.7 128.9 -18.7 191.3 0 l 4.5 1.3 c 10.1 3 18.3 -3.1 18.3 -13.7 V 352.3 c 0 -10.1 -8.2 -18.3 -18.3 -18.3 l 0 0 c -65.3 -19.6 -135 -19.6 -200.3 0 l 0 0 c -10.1 0 -18.3 8.2 -18.3 18.3 V 670.3 z" stroke-linecap="round"/>
</g>
		<g transform="matrix(1 0 0 1 118.45 -15.2)">
<path style="stroke: none; stroke-width: 1; stroke-dasharray: none; stroke-linecap: butt; stroke-dashoffset: 0; stroke-linejoin: miter; stroke-miterlimit: 4; is-custom-font: none; font-file-url: none; fill: rgb(230,231,232); fill-rule: nonzero; opacity: 1;" transform=" translate(-618.45, -484.8)" d="M 500 660.3 l 18.3 -5.5 c 65.3 -19.6 135 -19.6 200.3 0 h 0 c 10.1 3 18.3 -3.1 18.3 -13.7 V 342.3 c 0 -10.1 -8.2 -18.3 -18.3 -18.3 l 0 0 c -65.3 -19.6 -135 -19.6 -200.3 0 l 0 0 c -10.1 0 -18.3 8.2 -18.3 18.3 V 660.3 z" stroke-linecap="round"/>
</g>
		<g transform="matrix(1 0 0 1 -118.45 -25.2)">
<path style="stroke: none; stroke-width: 1; stroke-dasharray: none; stroke-linecap: butt; stroke-dashoffset: 0; stroke-linejoin: miter; stroke-miterlimit: 4; is-custom-font: none; font-file-url: none; fill: rgb(209,211,212); fill-rule: nonzero; opacity: 1;" transform=" translate(-381.55, -474.8)" d="M 500 650.3 l -22.8 -6.8 c -62.4 -18.7 -128.9 -18.7 -191.3 0 l -4.5 1.3 c -10.1 3 -18.3 -3.1 -18.3 -13.7 V 332.3 c 0 -10.1 8.2 -18.3 18.3 -18.3 l 0 0 c 65.3 -19.6 135 -19.6 200.3 0 l 0 0 c 10.1 0 18.3 8.2 18.3 18.3 V 650.3 z" stroke-linecap="round"/>
</g>
		<g transform="matrix(1 0 0 1 -118.45 -35.2)">
<path style="stroke: none; stroke-width: 1; stroke-dasharray: none; stroke-linecap: butt; stroke-dashoffset: 0; stroke-linejoin: miter; stroke-miterlimit: 4; is-custom-font: none; font-file-url: none; fill: rgb(230,231,232); fill-rule: nonzero; opacity: 1;" transform=" translate(-381.55, -464.8)" d="M 500 640.3 l -22.8 -6.8 c -62.4 -18.7 -128.9 -18.7 -191.3 0 l -4.5 1.3 c -10.1 3 -18.3 -3.1 -18.3 -13.7 V 322.3 c 0 -10.1 8.2 -18.3 18.3 -18.3 l 0 0 c 65.3 -19.6 135 -19.6 200.3 0 l 0 0 c 10.1 0 18.3 8.2 18.3 18.3 V 640.3 z" stroke-linecap="round"/>
</g>
		<g transform="matrix(1 0 0 1 118.45 -25.2)">
<path style="stroke: none; stroke-width: 1; stroke-dasharray: none; stroke-linecap: butt; stroke-dashoffset: 0; stroke-linejoin: miter; stroke-miterlimit: 4; is-custom-font: none; font-file-url: none; fill: rgb(209,211,212); fill-rule: nonzero; opacity: 1;" transform=" translate(-618.45, -474.8)" d="M 500 650.3 l 22.8 -6.8 c 62.4 -18.7 128.9 -18.7 191.3 0 l 4.5 1.3 c 10.1 3 18.3 -3.1 18.3 -13.7 V 332.3 c 0 -10.1 -8.2 -18.3 -18.3 -18.3 l 0 0 c -65.3 -19.6 -135 -19.6 -200.3 0 l 0 0 c -10.1 0 -18.3 8.2 -18.3 18.3 V 650.3 z" stroke-linecap="round"/>
</g>
		<g transform="matrix(1 0 0 1 118.45 -35.2)">
<path style="stroke: none; stroke-width: 1; stroke-dasharray: none; stroke-linecap: butt; stroke-dashoffset: 0; stroke-linejoin: miter; stroke-miterlimit: 4; is-custom-font: none; font-file-url: none; fill: rgb(230,231,232); fill-rule: nonzero; opacity: 1;" transform=" translate(-618.45, -464.8)" d="M 500 640.3 l 18.3 -5.5 c 65.3 -19.6 135 -19.6 200.3 0 h 0 c 10.1 3 18.3 -3.1 18.3 -13.7 V 322.3 c 0 -10.1 -8.2 -18.3 -18.3 -18.3 l 0 0 c -65.3 -19.6 -135 -19.6 -200.3 0 l 0 0 c -10.1 0 -18.3 8.2 -18.3 18.3 V 640.3 z" stroke-linecap="round"/>
</g>
		<g transform="matrix(1 0 0 1 -118.45 -45.2)">
<path style="stroke: none; stroke-width: 1; stroke-dasharray: none; stroke-linecap: butt; stroke-dashoffset: 0; stroke-linejoin: miter; stroke-miterlimit: 4; is-custom-font: none; font-file-url: none; fill: rgb(209,211,212); fill-rule: nonzero; opacity: 1;" transform=" translate(-381.55, -454.8)" d="M 500 630.3 l -22.8 -6.8 c -62.4 -18.7 -128.9 -18.7 -191.3 0 l -4.5 1.3 c -10.1 3 -18.3 -3.1 -18.3 -13.7 V 312.3 c 0 -10.1 8.2 -18.3 18.3 -18.3 l 0 0 c 65.3 -19.6 135 -19.6 200.3 0 l 0 0 c 10.1 0 18.3 8.2 18.3 18.3 V 630.3 z" stroke-linecap="round"/>
</g>
		<g transform="matrix(1 0 0 1 -118.45 -56.0159)">
<path style="stroke: none; stroke-width: 1; stroke-dasharray: none; stroke-linecap: butt; stroke-dashoffset: 0; stroke-linejoin: miter; stroke-miterlimit: 4; is-custom-font: none; font-file-url: none; fill: rgb(255,255,255); fill-rule: nonzero; opacity: 1;" transform=" translate(-381.55, -443.9841)" d="M 500 620.3 l -22.8 -6.8 c -62.4 -18.7 -128.9 -18.7 -191.3 0 l -4.5 1.3 c -10.1 3 -18.3 -3.1 -18.3 -13.7 V 302.3 c 0 -10.1 8.2 -18.3 18.3 -18.3 l 17.5 -5.2 c 60.3 -18.1 125.2 -14.1 182.6 11.8 c 11.1 5 18.5 9.3 18.5 11.8 V 620.3 z" stroke-linecap="round"/>
</g>
		<g transform="matrix(1 0 0 1 118.45 -45.2)">
<path style="stroke: none; stroke-width: 1; stroke-dasharray: none; stroke-linecap: butt; stroke-dashoffset: 0; stroke-linejoin: miter; stroke-miterlimit: 4; is-custom-font: none; font-file-url: none; fill: rgb(209,211,212); fill-rule: nonzero; opacity: 1;" transform=" translate(-618.45, -454.8)" d="M 500 630.3 l 22.8 -6.8 c 62.4 -18.7 128.9 -18.7 191.3 0 l 4.5 1.3 c 10.1 3 18.3 -3.1 18.3 -13.7 V 312.3 c 0 -10.1 -8.2 -18.3 -18.3 -18.3 l 0 0 c -65.3 -19.6 -135 -19.6 -200.3 0 l 0 0 c -10.1 0 -18.3 8.2 -18.3 18.3 V 630.3 z" stroke-linecap="round"/>
</g>
		<g transform="matrix(1 0 0 1 118.45 -56.0159)">
<path style="stroke: none; stroke-width: 1; stroke-dasharray: none; stroke-linecap: butt; stroke-dashoffset: 0; stroke-linejoin: miter; stroke-miterlimit: 4; is-custom-font: none; font-file-url: none; fill: rgb(255,255,255); fill-rule: nonzero; opacity: 1;" transform=" translate(-618.45, -443.9841)" d="M 500 620.3 l 18.3 -5.5 c 65.3 -19.6 135 -19.6 200.3 0 h 0 c 10.1 3 18.3 -3.1 18.3 -13.7 V 302.3 c 0 -10.1 -8.2 -18.3 -18.3 -18.3 l -17.5 -5.2 c -60.3 -18.1 -125.2 -14.1 -182.6 11.8 c -11.1 5 -18.5 9.3 -18.5 11.8 V 620.3 z" stroke-linecap="round"/>
</g>
		<g transform="matrix(1 0 0 1 -117.1 -143.9151)">
<path style="stroke: none; stroke-width: 1; stroke-dasharray: none; stroke-linecap: butt; stroke-dashoffset: 0; stroke-linejoin: miter; stroke-miterlimit: 4; is-custom-font: none; font-file-url: none; fill: rgb(209,211,212); fill-rule: nonzero; opacity: 1;" transform=" translate(-382.9, -356.0849)" d="M 472.2 363.1 c 0 -1.2 -0.7 -2.3 -1.9 -2.8 c -55 -22.1 -116 -24.7 -172.9 -7.6 l -1.7 0.5 c -1.3 0.4 -2.1 1.5 -2.1 2.9 v 4.6 c 0 2 1.9 3.4 3.8 2.9 l 0 0 c 56.2 -16.8 116.3 -14.5 170.7 6.8 c 2 0.8 4.1 -0.7 4.1 -2.8 V 363.1 z" stroke-linecap="round"/>
</g>
		<g transform="matrix(1 0 0 1 -117.1 -99.9151)">
<path style="stroke: none; stroke-width: 1; stroke-dasharray: none; stroke-linecap: butt; stroke-dashoffset: 0; stroke-linejoin: miter; stroke-miterlimit: 4; is-custom-font: none; font-file-url: none; fill: rgb(209,211,212); fill-rule: nonzero; opacity: 1;" transform=" translate(-382.9, -400.0849)" d="M 472.2 407.1 c 0 -1.2 -0.7 -2.3 -1.9 -2.8 c -55 -22.1 -116 -24.7 -172.9 -7.6 l -1.7 0.5 c -1.3 0.4 -2.1 1.5 -2.1 2.9 v 4.6 c 0 2 1.9 3.4 3.8 2.9 l 0 0 c 56.2 -16.8 116.3 -14.5 170.7 6.8 c 2 0.8 4.1 -0.7 4.1 -2.8 V 407.1 z" stroke-linecap="round"/>
</g>
		<g transform="matrix(1 0 0 1 -117.1 -56.0151)">
<path style="stroke: none; stroke-width: 1; stroke-dasharray: none; stroke-linecap: butt; stroke-dashoffset: 0; stroke-linejoin: miter; stroke-miterlimit: 4; is-custom-font: none; font-file-url: none; fill: rgb(209,211,212); fill-rule: nonzero; opacity: 1;" transform=" translate(-382.9, -443.9849)" d="M 472.2 451 c 0 -1.2 -0.7 -2.3 -1.9 -2.8 c -55 -22.1 -116 -24.7 -172.9 -7.6 l -1.7 0.5 c -1.3 0.4 -2.1 1.5 -2.1 2.9 v 4.6 c 0 2 1.9 3.4 3.8 2.9 l 0 0 c 56.2 -16.8 116.3 -14.5 170.7 6.8 c 2 0.8 4.1 -0.7 4.1 -2.8 V 451 z" stroke-linecap="round"/>
</g>
		<g transform="matrix(1 0 0 1 -117.1 -12.0151)">
<path style="stroke: none; stroke-width: 1; stroke-dasharray: none; stroke-linecap: butt; stroke-dashoffset: 0; stroke-linejoin: miter; stroke-miterlimit: 4; is-custom-font: none; font-file-url: none; fill: rgb(209,211,212); fill-rule: nonzero; opacity: 1;" transform=" translate(-382.9, -487.9849)" d="M 472.2 495 c 0 -1.2 -0.7 -2.3 -1.9 -2.8 c -55 -22.1 -116 -24.7 -172.9 -7.6 l -1.7 0.5 c -1.3 0.4 -2.1 1.5 -2.1 2.9 v 4.6 c 0 2 1.9 3.4 3.8 2.9 l 0 0 c 56.2 -16.8 116.3 -14.5 170.7 6.8 c 2 0.8 4.1 -0.7 4.1 -2.8 V 495 z" stroke-linecap="round"/>
</g>
		<g transform="matrix(1 0 0 1 -117.1 31.8849)">
<path style="stroke: none; stroke-width: 1; stroke-dasharray: none; stroke-linecap: butt; stroke-dashoffset: 0; stroke-linejoin: miter; stroke-miterlimit: 4; is-custom-font: none; font-file-url: none; fill: rgb(209,211,212); fill-rule: nonzero; opacity: 1;" transform=" translate(-382.9, -531.8849)" d="M 472.2 538.9 c 0 -1.2 -0.7 -2.3 -1.9 -2.8 c -55 -22.1 -116 -24.7 -172.9 -7.6 l -1.7 0.5 c -1.3 0.4 -2.1 1.5 -2.1 2.9 v 4.6 c 0 2 1.9 3.4 3.8 2.9 l 0 0 c 56.2 -16.8 116.3 -14.5 170.7 6.8 c 2 0.8 4.1 -0.7 4.1 -2.8 V 538.9 z" stroke-linecap="round"/>
</g>
		<g transform="matrix(1 0 0 1 117.1 -143.9151)">
<path style="stroke: none; stroke-width: 1; stroke-dasharray: none; stroke-linecap: butt; stroke-dashoffset: 0; stroke-linejoin: miter; stroke-miterlimit: 4; is-custom-font: none; font-file-url: none; fill: rgb(209,211,212); fill-rule: nonzero; opacity: 1;" transform=" translate(-617.1, -356.0849)" d="M 527.8 363.1 c 0 -1.2 0.7 -2.3 1.9 -2.8 c 55 -22.1 116 -24.7 172.9 -7.6 l 1.7 0.5 c 1.3 0.4 2.1 1.5 2.1 2.9 v 4.6 c 0 2 -1.9 3.4 -3.8 2.9 l 0 0 c -56.2 -16.8 -116.3 -14.5 -170.7 6.8 c -2 0.8 -4.1 -0.7 -4.1 -2.8 V 363.1 z" stroke-linecap="round"/>
</g>
		<g transform="matrix(1 0 0 1 117.1 -99.9151)">
<path style="stroke: none; stroke-width: 1; stroke-dasharray: none; stroke-linecap: butt; stroke-dashoffset: 0; stroke-linejoin: miter; stroke-miterlimit: 4; is-custom-font: none; font-file-url: none; fill: rgb(209,211,212); fill-rule: nonzero; opacity: 1;" transform=" translate(-617.1, -400.0849)" d="M 527.8 407.1 c 0 -1.2 0.7 -2.3 1.9 -2.8 c 55 -22.1 116 -24.7 172.9 -7.6 l 1.7 0.5 c 1.3 0.4 2.1 1.5 2.1 2.9 v 4.6 c 0 2 -1.9 3.4 -3.8 2.9 l 0 0 c -56.2 -16.8 -116.3 -14.5 -170.7 6.8 c -2 0.8 -4.1 -0.7 -4.1 -2.8 V 407.1 z" stroke-linecap="round"/>
</g>
		<g transform="matrix(1 0 0 1 117.1 -56.0151)">
<path style="stroke: none; stroke-width: 1; stroke-dasharray: none; stroke-linecap: butt; stroke-dashoffset: 0; stroke-linejoin: miter; stroke-miterlimit: 4; is-custom-font: none; font-file-url: none; fill: rgb(209,211,212); fill-rule: nonzero; opacity: 1;" transform=" translate(-617.1, -443.9849)" d="M 527.8 451 c 0 -1.2 0.7 -2.3 1.9 -2.8 c 55 -22.1 116 -24.7 172.9 -7.6 l 1.7 0.5 c 1.3 0.4 2.1 1.5 2.1 2.9 v 4.6 c 0 2 -1.9 3.4 -3.8 2.9 l 0 0 c -56.2 -16.8 -116.3 -14.5 -170.7 6.8 c -2 0.8 -4.1 -0.7 -4.1 -2.8 V 451 z" stroke-linecap="round"/>
</g>
		<g transform="matrix(1 0 0 1 117.1 -12.0151)">
<path style="stroke: none; stroke-width: 1; stroke-dasharray: none; stroke-linecap: butt; stroke-dashoffset: 0; stroke-linejoin: miter; stroke-miterlimit: 4; is-custom-font: none; font-file-url: none; fill: rgb(209,211,212); fill-rule: nonzero; opacity: 1;" transform=" translate(-617.1, -487.9849)" d="M 527.8 495 c 0 -1.2 0.7 -2.3 1.9 -2.8 c 55 -22.1 116 -24.7 172.9 -7.6 l 1.7 0.5 c 1.3 0.4 2.1 1.5 2.1 2.9 v 4.6 c 0 2 -1.9 3.4 -3.8 2.9 l 0 0 c -56.2 -16.8 -116.3 -14.5 -170.7 6.8 c -2 0.8 -4.1 -0.7 -4.1 -2.8 V 495 z" stroke-linecap="round"/>
</g>
		<g transform="matrix(1 0 0 1 117.1 31.8849)">
<path style="stroke: none; stroke-width: 1; stroke-dasharray: none; stroke-linecap: butt; stroke-dashoffset: 0; stroke-linejoin: miter; stroke-miterlimit: 4; is-custom-font: none; font-file-url: none; fill: rgb(209,211,212); fill-rule: nonzero; opacity: 1;" transform=" translate(-617.1, -531.8849)" d="M 527.8 538.9 c 0 -1.2 0.7 -2.3 1.9 -2.8 c 55 -22.1 116 -24.7 172.9 -7.6 l 1.7 0.5 c 1.3 0.4 2.1 1.5 2.1 2.9 v 4.6 c 0 2 -1.9 3.4 -3.8 2.9 l 0 0 c -56.2 -16.8 -116.3 -14.5 -170.7 6.8 c -2 0.8 -4.1 -0.7 -4.1 -2.8 V 538.9 z" stroke-linecap="round"/>
</g>
		<g transform="matrix(1 0 0 1 -8.5 -44.25)">
<path style="stroke: none; stroke-width: 1; stroke-dasharray: none; stroke-linecap: butt; stroke-dashoffset: 0; stroke-linejoin: miter; stroke-miterlimit: 4; is-custom-font: none; font-file-url: none; fill: rgb(230,231,232); fill-rule: nonzero; opacity: 1;" transform=" translate(-491.5, -455.75)" d="M 483 291.2 v 324 l 17 5.1 v -318 C 500 299.9 493.3 295.9 483 291.2 z" stroke-linecap="round"/>
</g>
		<g transform="matrix(1 0 0 1 8.5 -44.25)">
<path style="stroke: none; stroke-width: 1; stroke-dasharray: none; stroke-linecap: butt; stroke-dashoffset: 0; stroke-linejoin: miter; stroke-miterlimit: 4; is-custom-font: none; font-file-url: none; fill: rgb(230,231,232); fill-rule: nonzero; opacity: 1;" transform=" translate(-508.5, -455.75)" d="M 517 291.2 c -10.3 4.7 -17 8.7 -17 11.1 v 318 l 17 -5.1 V 291.2 z" stroke-linecap="round"/>
</g>
</g>
</g>
</svg>